<svg height="512" viewBox="0 0 64 64" width="512" xmlns="http://www.w3.org/2000/svg"><g id="mask-skin-skin_care-beauty-woman" data-name="mask-skin-skin care-beauty-woman"><path d="m39 57h22v4h-22z" fill="#a78966"/><path d="m37 3h24v28h-24z" fill="#46f8ff"/><path d="m57 3h4v28h-4z" fill="#00d7df"/><path d="m52 49h8v8h-8z" fill="#fee9ab"/><path d="m56 49h4v8h-4z" fill="#ffde55"/><path d="m47.54 48.46a5.022 5.022 0 1 1 -3.54-1.46 5.022 5.022 0 0 1 3.54 1.46z" fill="#bdfdff"/><path d="m49 52a4.985 4.985 0 0 1 -5 5 5.106 5.106 0 0 1 -2-.41 5.131 5.131 0 0 0 1.54-1.05 5.022 5.022 0 0 0 0-7.08 5.131 5.131 0 0 0 -1.54-1.05 5.106 5.106 0 0 1 2-.41 4.985 4.985 0 0 1 5 5z" fill="#46f8ff"/><path d="m46 37v4h-2-2v-4z" fill="#898890"/><path d="m2 61v-8a4 4 0 0 1 4-4h9v-4.38a12.032 12.032 0 0 0 6 0v4.38h9a4 4 0 0 1 4 4v8z" fill="#ffc477"/><path d="m34 53v8h-4v-8a4 4 0 0 0 -4-4h4a4 4 0 0 1 4 4z" fill="#ffa733"/><path d="m33 22v4a14.9 14.9 0 0 1 -3.21 9.26 12.026 12.026 0 0 0 .21-2.26v-4a12.017 12.017 0 0 0 -1.03-4.88 15.031 15.031 0 0 0 -12.34-13.89l-.02-.02a14.879 14.879 0 0 1 4.33-2.92 15 15 0 0 1 12.06 14.71z" fill="#a78966"/><path d="m30 29v4a11.965 11.965 0 0 1 -9 11.62 12.032 12.032 0 0 1 -6 0 11.965 11.965 0 0 1 -9-11.62v-4a12 12 0 0 1 6.22-10.52 12.024 12.024 0 0 1 14.27 2.03 11.968 11.968 0 0 1 3.51 8.49z" fill="#e0e0e2"/><path d="m30 29v4a11.965 11.965 0 0 1 -9 11.62 11.858 11.858 0 0 1 -3 .38 10.6 10.6 0 0 1 -1.5-.1 10.722 10.722 0 0 0 1.5-.28 11.965 11.965 0 0 0 9-11.62v-4a11.965 11.965 0 0 0 -10.51-11.9 10.84 10.84 0 0 1 1.51-.1 11.98 11.98 0 0 1 12 12z" fill="#c6c5ca"/><path d="m8 55h20v6h-20z" fill="#fee9ab"/><path d="m28.97 24.12a11.99 11.99 0 0 0 -10.97-7.12 11.883 11.883 0 0 0 -5.78 1.48 14.965 14.965 0 0 1 4.39-8.27l.02.02a15.031 15.031 0 0 1 12.34 13.89z" fill="#c0ab91"/><circle cx="23" cy="29" fill="#898890" r="2"/><path d="m22.24 4.76a5.914 5.914 0 0 1 1.71 3.47 14.968 14.968 0 0 0 -5.95-1.23 14.9 14.9 0 0 0 -5.95 1.23 6 6 0 0 1 10.19-3.47z" fill="#c0ab91"/><path d="m14 37h8a4 4 0 0 1 -8 0z" fill="#ff3051"/><path d="m18 7a14.956 14.956 0 0 1 2.94.29 15.087 15.087 0 0 0 -8.72 11.19 12 12 0 0 0 -6.22 10.52v4a12.026 12.026 0 0 0 .21 2.26 14.9 14.9 0 0 1 -3.21-9.26v-4a15 15 0 0 1 15-15z" fill="#957856"/><circle cx="13" cy="29" fill="#898890" r="2"/><path d="m30 48h-8v-2.64a13.023 13.023 0 0 0 8.72-9.68 15.8 15.8 0 0 0 3.28-9.68v-4a16 16 0 0 0 -9.18-14.45 6.782 6.782 0 0 0 -1.87-3.49 6.964 6.964 0 0 0 -11.77 3.49 16 16 0 0 0 -9.18 14.45v4a15.8 15.8 0 0 0 3.28 9.68 13.023 13.023 0 0 0 8.72 9.68v2.64h-8a5 5 0 0 0 -5 5v8a1 1 0 0 0 1 1h32a1 1 0 0 0 1-1v-8a5 5 0 0 0 -5-5zm2-26v4a13.963 13.963 0 0 1 -1 5.18v-2.18a13 13 0 0 0 -1.05-5.11 16.163 16.163 0 0 0 -11.21-14.16 13.881 13.881 0 0 1 2.33-1.38 14.014 14.014 0 0 1 10.93 13.65zm-5.15-2.49a12.834 12.834 0 0 0 -13.17-2.75 13.858 13.858 0 0 1 3.23-5.44 14.135 14.135 0 0 1 9.94 8.19zm-12.38-14.05a5 5 0 0 1 7.07.01 5.094 5.094 0 0 1 .85 1.16 15.61 15.61 0 0 0 -8.78 0 4.905 4.905 0 0 1 .86-1.17zm-9.47 23.54v2.18a13.963 13.963 0 0 1 -1-5.18v-4a14 14 0 0 1 13.67-13.98 15.89 15.89 0 0 0 -6.35 9.85 12.971 12.971 0 0 0 -6.32 11.13zm2 4v-4a11 11 0 0 1 22 0v4a11 11 0 0 1 -22 0zm20 27h-18v-4h18zm6 0h-4v-5a1 1 0 0 0 -1-1h-20a1 1 0 0 0 -1 1v5h-4v-7a3.009 3.009 0 0 1 3-3h9a1 1 0 0 0 1-1v-3.17a13.161 13.161 0 0 0 2 .17 13.161 13.161 0 0 0 2-.17v3.17a1 1 0 0 0 1 1h9a3.009 3.009 0 0 1 3 3z"/><path d="m16 29a3 3 0 1 0 -3 3 3 3 0 0 0 3-3zm-4 0a1 1 0 1 1 1 1 1 1 0 0 1 -1-1z"/><path d="m23 32a3 3 0 1 0 -3-3 3 3 0 0 0 3 3zm0-4a1 1 0 1 1 -1 1 1 1 0 0 1 1-1z"/><path d="m23 37a1 1 0 0 0 -1-1h-8a1 1 0 0 0 -1 1 5 5 0 0 0 10 0zm-7.829 1h5.658a3 3 0 0 1 -5.658 0z"/><path d="m61 56v-7a1 1 0 0 0 -1-1h-8a1 1 0 0 0 -1 1v7h-2.54a5.984 5.984 0 0 0 -3.46-9.91v-4.09h1a1 1 0 0 0 1-1v-4a1 1 0 0 0 -1-1h-4a1 1 0 0 0 -1 1v4a1 1 0 0 0 1 1h1v4.09a5.984 5.984 0 0 0 -3.46 9.91h-.54a1 1 0 0 0 -1 1v4a1 1 0 0 0 1 1h22a1 1 0 0 0 1-1v-4a1 1 0 0 0 -1-1zm-8-6h6v6h-6zm-10-12h2v2h-2zm1 10a4 4 0 1 1 -4 4 4 4 0 0 1 4-4zm16 12h-20v-2h20z"/><path d="m61 2h-24a1 1 0 0 0 -1 1v28a1 1 0 0 0 1 1h24a1 1 0 0 0 1-1v-28a1 1 0 0 0 -1-1zm-1 28h-22v-26h22z"/><path d="m51.585 7.5h5.831v2h-5.831z" transform="matrix(.857 -.515 .515 .857 3.397 29.26)"/><path d="m51.585 12.5h5.831v2h-5.831z" transform="matrix(.857 -.515 .515 .857 .824 29.973)"/></g></svg>