<svg id="Capa_1" enable-background="new 0 0 511.887 511.887" height="512" viewBox="0 0 511.887 511.887" width="512" xmlns="http://www.w3.org/2000/svg"><g><g><path d="m332.121 102.134c7.612-34.489-8.942-69.783-40.328-85.98-22.404-11.562-49.018-11.562-71.422 0-31.386 16.198-47.94 51.491-40.328 85.98l7.416 31.52h135.906z" fill="#a79ba7"/><path d="m333.813 80.875c-9.829-6.61-20.562-11.949-31.961-15.749l-.64-.213c-5.376-1.789-11.004-2.701-16.67-2.701h-59.222c-.744 0-1.589.05-2.495.136-6.964.664-11.891-6.589-8.677-12.803 7.227-13.968 18.687-25.786 33.425-33.392 7.041-3.634 14.498-6.124 22.11-7.473-16.607-2.945-33.95-.455-49.312 7.473-31.386 16.198-47.94 51.491-40.328 85.98l7.416 31.52h13.376 13.827 108.704l8.756-31.52c1.568-7.11 2.095-14.253 1.691-21.258z" fill="#918291"/><path d="m294.888 83.887.639.213c33.491 11.164 59.866 37.299 71.334 70.688l1.652 4.811 5.973 53.163-243.653-8.792 10.541-44.371 1.652-4.811c11.468-33.388 37.842-59.524 71.334-70.688l.639-.213c3.328-1.109 6.813-1.675 10.321-1.675h59.247c3.508 0 6.993.566 10.321 1.675z" fill="#a79ba7"/><g id="XMLID_319_"><g><path d="m398.224 238.382v56.93h-286.6v-56.93c0-24.29 7.36-47.35 20.36-66.63 12.99-19.27 31.61-34.74 54.12-43.85 22.07-8.93 45.44-13.39 68.82-13.39 23.37 0 46.74 4.46 68.81 13.39 45.02 18.21 74.49 61.91 74.49 110.48z" fill="#f9f7f8"/></g></g><g fill="#ffe5c2"><path d="m381.322 317.175c13.999 0 25.348-11.349 25.348-25.348 0-13.999-11.349-25.348-25.348-25.348h-32.05v50.696z"/><path d="m130.565 317.175c-13.999 0-25.348-11.349-25.348-25.348 0-13.999 11.349-25.348 25.348-25.348h40.99v50.696z"/><path d="m301.946 441.998 6.697 18.917c.871 2.46 2.892 4.336 5.41 5.022l76.447 20.822c10.625 2.894 20.4 8.296 28.504 15.751l2.04 1.877.934 1.127c1.461 1.764.202 4.431-2.089 4.424l-327.018-1.075c-2.314-.008-3.547-2.731-2.027-4.475l2.04-1.877c8.104-7.456 17.879-12.858 28.504-15.751l76.447-20.822c2.518-.686 4.539-2.562 5.41-5.022l6.697-18.917 12.198-37.823 73.919-3.345z"/></g><g><g id="XMLID_313_"><g><path d="m369.513 246.032v71.52c0 54.09-30.12 103.68-78.12 128.61l-18.24 9.48c-11.1 5.77-24.32 5.77-35.42 0l-18.24-9.48c-48-24.93-78.12-74.52-78.12-128.61v-71.52c0-3.18 1.6-6.15 4.25-7.91l1.05-.69c65.94-43.65 151.6-43.65 217.54 0l1.05.69c2.651 1.76 4.25 4.73 4.25 7.91z" fill="#97da7b"/></g></g><path d="m369.514 261.827v-15.795c0-3.18-1.6-6.15-4.25-7.91l-1.05-.69c-65.94-43.65-151.6-43.65-217.54 0l-1.05.69c-2.65 1.76-4.25 4.73-4.25 7.91v15.131c69.681-44.045 158.652-43.823 228.14.664z" fill="#80d261"/><g fill="#ffe5c2"><ellipse cx="204.35" cy="282.528" rx="35.397" ry="32.601"/><ellipse cx="307.537" cy="282.528" rx="35.397" ry="32.601"/><ellipse cx="255.443" cy="384.845" rx="45.502" ry="35.462"/></g></g></g><g><path d="m215.752 152.179c-27.995 3.456-53.366 18.665-69.607 41.728l-1.514 2.149c-2.385 3.386-1.573 8.065 1.813 10.45 1.313.925 2.82 1.369 4.313 1.369 2.357 0 4.678-1.108 6.139-3.182l1.514-2.149c13.81-19.609 35.38-32.54 59.182-35.479 4.111-.507 7.032-4.251 6.524-8.362-.509-4.111-4.266-7.035-8.364-6.524z"/><path d="m296.135 152.179c-4.114-.506-7.854 2.414-8.362 6.524s2.413 7.855 6.524 8.362c23.802 2.938 45.372 15.87 59.182 35.479l1.514 2.149c1.461 2.074 3.781 3.182 6.139 3.182 1.492 0 2.999-.444 4.313-1.369 3.386-2.385 4.197-7.064 1.813-10.45l-1.514-2.148c-16.243-23.064-41.614-38.274-69.609-41.729z"/><path d="m204.35 242.427c-23.653 0-42.897 17.989-42.897 40.101 0 22.111 19.244 40.101 42.897 40.101s42.897-17.989 42.897-40.101-19.244-40.101-42.897-40.101zm0 65.202c-15.383 0-27.897-11.26-27.897-25.101s12.515-25.101 27.897-25.101 27.897 11.26 27.897 25.101c0 13.84-12.514 25.101-27.897 25.101z"/><path d="m204.35 270.257c-4.143 0-7.5 3.358-7.5 7.5v8.075c0 4.142 3.357 7.5 7.5 7.5s7.5-3.358 7.5-7.5v-8.075c0-4.142-3.358-7.5-7.5-7.5z"/><path d="m350.435 282.528c0-22.112-19.244-40.101-42.897-40.101s-42.897 17.989-42.897 40.101c0 22.111 19.244 40.101 42.897 40.101s42.897-17.99 42.897-40.101zm-70.795 0c0-13.841 12.515-25.101 27.897-25.101s27.897 11.26 27.897 25.101c0 13.84-12.515 25.101-27.897 25.101s-27.897-11.261-27.897-25.101z"/><path d="m315.037 285.831v-8.075c0-4.142-3.357-7.5-7.5-7.5s-7.5 3.358-7.5 7.5v8.075c0 4.142 3.357 7.5 7.5 7.5s7.5-3.358 7.5-7.5z"/><path d="m202.442 384.846c0 23.689 23.776 42.962 53.002 42.962s53.002-19.272 53.002-42.962-23.776-42.962-53.002-42.962-53.002 19.272-53.002 42.962zm91.003 0c0 15.418-17.048 27.962-38.002 27.962s-38.002-12.543-38.002-27.962 17.048-27.962 38.002-27.962 38.002 12.543 38.002 27.962z"/><path d="m234.219 379.153c-2.039 3.605-.77 8.181 2.836 10.221 5.818 3.291 12.341 4.936 18.865 4.936 6.522 0 13.047-1.646 18.865-4.936 3.605-2.039 4.875-6.615 2.836-10.22-2.04-3.606-6.614-4.875-10.221-2.836-7.082 4.006-15.881 4.005-22.961 0-3.606-2.039-8.18-.77-10.22 2.835z"/><path d="m426.122 498.868-2.04-1.877c-8.949-8.232-19.88-14.273-31.612-17.469l-19.814-5.396c-3.993-1.086-8.119 1.268-9.207 5.266-1.089 3.997 1.269 8.119 5.266 9.207l19.814 5.396c9.426 2.567 18.208 7.421 25.396 14.034l2.039 1.876c1.441 1.327 3.262 1.981 5.077 1.981 2.024 0 4.042-.814 5.521-2.421 2.804-3.047 2.608-7.792-.44-10.597z"/><path d="m341.614 465.671-25.591-6.97c-.145-.04-.261-.147-.311-.289l-5.28-14.912c39.521-26.86 64.175-70.618 66.395-118.824h4.493c18.113 0 32.849-14.736 32.849-32.848 0-8.439-3.202-16.144-8.451-21.968v-31.48c0-4.037-.215-8.252-.639-12.531-.409-4.122-4.066-7.13-8.204-6.724-4.121.409-7.132 4.081-6.724 8.203.376 3.789.566 7.507.566 11.051v21.977c-2.979-.891-6.132-1.377-9.397-1.377h-4.309v-12.945c0-5.713-2.845-11.008-7.612-14.165l-1.044-.691c-68.594-45.398-157.234-45.397-225.824-.001l-1.049.694c-4.765 3.155-7.609 8.449-7.609 14.163v12.945h-3.309c-4.023 0-7.879.73-11.444 2.06v-22.66c0-45.738 27.397-86.374 69.799-103.524 42.561-17.215 89.439-17.216 132 0 28.514 11.533 51.225 34.618 62.31 63.334 1.491 3.863 5.832 5.789 9.698 4.296 3.864-1.491 5.787-5.833 4.296-9.697-5.22-13.523-12.72-25.94-22.014-36.78l-1.257-3.657c-6.792-19.775-18.678-37.298-34.038-50.976 7.078-37.004-11.037-74.522-44.684-91.886-24.515-12.652-53.786-12.652-78.301 0-33.131 17.098-51.209 53.738-44.999 90.186-16.307 13.912-28.922 32.069-35.999 52.676l-1.18 3.436c-3.204 3.732-6.211 7.657-8.989 11.778-14.159 21-21.643 45.487-21.643 70.813v33.99c-4.021 5.451-6.404 12.181-6.404 19.458 0 18.112 14.735 32.848 32.849 32.848h3.481c.624 13.398 3.003 26.629 7.107 39.424 1.265 3.944 5.486 6.114 9.433 4.851 3.944-1.265 6.116-5.488 4.851-9.433-4.354-13.575-6.563-27.694-6.563-41.965v-71.518c0-.667.333-1.287.888-1.654l1.048-.693c63.562-42.07 145.704-42.071 209.27.001l1.043.69c.558.369.891.988.891 1.656v71.518c0 51.49-28.385 98.222-74.077 121.959l-18.236 9.473c-8.926 4.638-19.585 4.638-28.513 0l-18.235-9.474c-22.887-11.889-41.917-29.94-55.034-52.201-2.103-3.569-6.7-4.756-10.27-2.654-3.568 2.103-4.757 6.7-2.654 10.269 11.621 19.722 27.438 36.452 46.27 49.113l-5.089 14.376c-.05.14-.166.247-.311.287l-76.446 20.822c-11.732 3.195-22.663 9.236-31.61 17.468l-2.04 1.876c-3.049 2.804-3.247 7.549-.442 10.597 1.479 1.608 3.496 2.423 5.521 2.423 1.814 0 3.635-.655 5.075-1.98l2.041-1.877c7.188-6.614 15.971-11.467 25.396-14.034l76.445-20.822c4.892-1.332 8.821-4.979 10.511-9.756l4.069-11.492c.553.296 1.097.607 1.654.896l18.234 9.473c6.63 3.444 13.899 5.166 21.172 5.166 7.271 0 14.544-1.722 21.171-5.166l18.235-9.473c.841-.437 1.663-.899 2.493-1.35l4.229 11.947c1.692 4.777 5.621 8.424 10.51 9.755l25.591 6.97c.659.18 1.322.266 1.976.266 3.299 0 6.322-2.194 7.231-5.531 1.089-3.995-1.269-8.118-5.266-9.206zm-124.881-374.456 5.663-1.888c3.93-1.31 6.053-5.557 4.743-9.487-1.311-3.93-5.557-6.053-9.487-4.744l-5.663 1.888c-9.252 3.084-18.019 7.29-26.15 12.436-1.584-27.377 13.009-53.719 37.971-66.602 20.207-10.428 44.335-10.429 64.544 0 25.388 13.103 40.047 40.128 37.871 68.004-8.733-5.792-18.244-10.477-28.326-13.838l-5.663-1.888c-3.932-1.311-8.177.814-9.487 4.744s.813 8.177 4.743 9.487l5.663 1.888c21.714 7.238 40.405 21.475 53.329 39.962-6.296-3.972-12.963-7.406-19.938-10.227-46.188-18.684-97.062-18.684-143.25 0-6.94 2.807-13.557 6.207-19.815 10.126 12.92-18.438 31.578-32.637 53.252-39.861zm-104.016 200.612c0-9.841 8.007-17.848 17.849-17.848h3.309v35.696h-3.309c-9.842 0-17.849-8.007-17.849-17.848zm268.604-17.848c9.842 0 17.849 8.007 17.849 17.848s-8.007 17.848-17.849 17.848h-4.309v-35.696z"/></g></g></svg>